<svg xmlns="http://www.w3.org/2000/svg" style="isolation:isolate" viewBox="0 0 397 417" width="397" height="417"><defs><clipPath id="a"><path d="M0 0h397v417H0z"/></clipPath></defs><g clip-path="url(#a)"><path d="M267.646 131.525l39.616-22.946-39.679-22.836-39.616 22.946 39.679 22.836zm-69.328 40.154l39.616-22.945-39.679-22.836-39.616 22.946 39.679 22.835zm-69.439-39.962l39.616-22.945-39.679-22.836L89.2 108.882l39.679 22.835zm69.328-40.155l39.616-22.945-39.679-22.836-39.616 22.946 39.679 22.835z" fill="#FCFAFA"/><path d="M168.559 154.553l-9.904 5.736 39.679 22.836 39.616-22.946-9.92-5.709-29.712 17.209-29.759-17.126zm69.328-40.155l-9.904 5.736 39.679 22.836 39.616-22.946-9.92-5.709-29.712 17.21-29.759-17.127zm-138.767.193l-9.904 5.736 39.679 22.835 39.616-22.945-9.92-5.709-29.712 17.209-29.759-17.126zm69.327-40.155l-9.903 5.736 39.679 22.836 39.616-22.946-9.92-5.709-29.712 17.209-29.76-17.126z" fill="#EB6D5F"/><path d="M19.856 137.591l168.638 97.051.206 148.789L20.063 286.38l-.207-148.789zM198.112 22.89l168.637 97.052-168.367 97.519L29.744 120.41l168.368-97.52zm178.573 114.206l.207 148.789-168.368 97.519-.206-148.789 168.367-97.519zM198.08 0L0 114.728l.255 183.125 198.397 114.178 198.08-114.728-.255-183.125L198.08 0z" fill="#EB6D5F"/></g></svg>