<?xml version="1.0" encoding="UTF-8" standalone="no"?>
<!-- Generator: Adobe Illustrator 24.2.0, SVG Export Plug-In . SVG Version: 6.00 Build 0)  -->

<svg
   version="1.1"
   id="Layer_1"
   x="0px"
   y="0px"
   viewBox="0 0 833 89.8"
   style="enable-background:new 0 0 833 89.8;"
   xml:space="preserve"
   sodipodi:docname="header-ocaml4noobs.svg"
   inkscape:version="1.3 (0e150ed6c4, 2023-07-21)"
   xmlns:inkscape="http://www.inkscape.org/namespaces/inkscape"
   xmlns:sodipodi="http://sodipodi.sourceforge.net/DTD/sodipodi-0.dtd"
   xmlns:xlink="http://www.w3.org/1999/xlink"
   xmlns="http://www.w3.org/2000/svg"
   xmlns:svg="http://www.w3.org/2000/svg"><defs
   id="defs26">&#10;		&#10;		&#10;		&#10;	&#10;	&#10;	&#10;</defs><sodipodi:namedview
   id="namedview26"
   pagecolor="#ffffff"
   bordercolor="#000000"
   borderopacity="0.25"
   inkscape:showpageshadow="2"
   inkscape:pageopacity="0.0"
   inkscape:pagecheckerboard="0"
   inkscape:deskcolor="#d1d1d1"
   inkscape:zoom="1.2472989"
   inkscape:cx="487.85419"
   inkscape:cy="45.297883"
   inkscape:window-width="1920"
   inkscape:window-height="991"
   inkscape:window-x="-9"
   inkscape:window-y="-9"
   inkscape:window-maximized="1"
   inkscape:current-layer="Layer_1" />&#10;<style
   type="text/css"
   id="style1">&#10;	.st0{fill:#232E35;}&#10;	.st1{fill:#9365C9;}&#10;	.st2{fill:#BCBBBC;}&#10;	.st3{fill:#9468CC;}&#10;	.st4{fill:#B4B3B4;}&#10;	.st5{fill:#FFFFFF;}&#10;</style>&#10;<rect
   x="0.15"
   y="-0.49"
   class="st0"
   width="832.18"
   height="89.17"
   id="rect1" />&#10;<g
   id="g3"
   transform="translate(76.966315,-2.4051973)">&#10;			<path
   class="st1"
   d="m 590.16,27.22 0.06,36.17 c 0,1.92 1.96,3.48 4.36,3.47 L 632,66.81 v -1.39 l -37.43,0.06 c -1.44,0 -2.61,-0.93 -2.61,-2.08 0,-1.15 1.17,-2.09 2.61,-2.09 L 632,61.25 631.94,23.69 594.51,23.75 c -2.41,-0.01 -4.36,1.56 -4.35,3.47 z m 40.09,32.64 -35.69,0.05 c -0.98,0 -1.88,0.26 -2.61,0.7 L 591.9,27.22 c 0,-1.15 1.17,-2.09 2.61,-2.09 l 35.69,-0.05 z"
   id="path1" />&#10;			&#10;				<rect
   x="630.25"
   y="62.639999"
   transform="matrix(1,-0.00154077,0.00154077,1,-0.0968,0.9725)"
   class="st1"
   width="1.74"
   height="1.39"
   id="rect2" />&#10;			&#10;				<rect
   x="595.42999"
   y="62.669998"
   transform="matrix(1,-0.00154077,0.00154077,1,-0.0969,0.943)"
   class="st1"
   width="33.080002"
   height="1.39"
   id="rect3" />&#10;			<path
   class="st1"
   d="m 577.97,29.8 0.05,32.92 c 0,2.3 2.35,4.17 5.23,4.17 2.88,0 5.22,-1.88 5.22,-4.18 l -0.05,-32.92 -5.23,-5.84 z m 5.22,-3.46 2.67,2.97 -5.32,0.01 z m 3.53,32.19 v 1.39 l -6.96,0.01 v -1.39 z m -6.96,-1.38 -0.04,-26.43 h 2.61 l 0.04,23.65 h 1.74 l -0.04,-23.65 h 2.61 l 0.04,26.43 h -2.61 v -1.39 h -1.74 v 1.39 z m 0.01,5.57 v -1.39 l 6.96,-0.01 v 1.39 c 0,1.53 -1.56,2.78 -3.48,2.79 -1.92,0 -3.48,-1.25 -3.48,-2.78 z"
   id="path3" />&#10;		</g><g
   id="g4"
   transform="translate(76.966315,-2.4051973)">&#10;			<path
   class="st5"
   d="m 613.77,50.6 -17.21,0.03 -0.01,-6.41 13.75,-13.47 12.6,-0.02 0.02,13.17 4.18,-0.01 0.01,6.69 -4.18,0.01 0.01,3.75 -9.17,0.01 z m -0.02,-13.7 -7.18,7.02 7.19,-0.01 z"
   id="path4" />&#10;		</g><g
   id="g9"
   transform="translate(76.966315,-2.4051973)">&#10;			<path
   class="st5"
   d="m 637.84,38.12 c 0.1,-0.67 0.17,-1.28 0.22,-1.82 l 7.27,-0.01 c -0.02,0.34 -0.06,0.72 -0.1,1.16 -0.04,0.44 -0.09,0.81 -0.13,1.13 h 0.13 c 0.52,-0.72 1.24,-1.35 2.17,-1.89 0.93,-0.54 1.96,-0.81 3.08,-0.81 0.99,0 1.82,0.14 2.51,0.43 0.69,0.29 1.25,0.68 1.69,1.16 0.44,0.48 0.75,1.04 0.95,1.67 0.19,0.63 0.29,1.28 0.29,1.95 0,0.36 -0.02,0.74 -0.05,1.13 -0.03,0.39 -0.08,0.77 -0.15,1.13 l -1.84,10.64 -7.58,0.01 1.64,-9.4 c 0.04,-0.2 0.07,-0.41 0.08,-0.62 0.01,-0.21 0.02,-0.39 0.02,-0.52 0,-0.45 -0.12,-0.81 -0.37,-1.09 -0.25,-0.28 -0.64,-0.42 -1.18,-0.42 -0.52,0 -0.97,0.23 -1.36,0.69 -0.39,0.46 -0.67,1.13 -0.82,2.01 l -1.68,9.35 -7.54,0.01 2.47,-14.25 c 0.09,-0.42 0.18,-0.97 0.28,-1.64 z"
   id="path5" />&#10;			<path
   class="st5"
   d="m 666.81,54.51 c -1.35,0 -2.6,-0.16 -3.77,-0.5 -1.17,-0.34 -2.19,-0.84 -3.07,-1.51 -0.88,-0.67 -1.56,-1.5 -2.06,-2.49 -0.5,-0.99 -0.74,-2.12 -0.75,-3.4 0,-1.48 0.24,-2.89 0.73,-4.21 0.49,-1.33 1.2,-2.48 2.13,-3.47 0.93,-0.99 2.07,-1.77 3.43,-2.35 1.36,-0.57 2.91,-0.86 4.66,-0.87 1.37,0 2.65,0.16 3.84,0.5 1.19,0.34 2.22,0.84 3.1,1.51 0.88,0.67 1.57,1.5 2.07,2.49 0.51,0.99 0.76,2.12 0.76,3.4 0,1.48 -0.24,2.89 -0.73,4.21 -0.49,1.33 -1.21,2.48 -2.15,3.47 -0.94,0.99 -2.1,1.77 -3.48,2.35 -1.36,0.58 -2.93,0.86 -4.71,0.87 z m 3.76,-10.08 c 0,-0.72 -0.23,-1.32 -0.68,-1.82 -0.45,-0.49 -1.11,-0.74 -1.99,-0.74 -0.52,0 -0.98,0.11 -1.4,0.32 -0.42,0.21 -0.77,0.5 -1.08,0.84 -0.3,0.35 -0.53,0.76 -0.69,1.23 -0.16,0.47 -0.23,0.97 -0.23,1.48 0,0.74 0.23,1.35 0.68,1.83 0.45,0.48 1.1,0.72 1.95,0.72 0.54,0 1.02,-0.1 1.45,-0.31 0.43,-0.2 0.78,-0.48 1.08,-0.84 0.29,-0.36 0.52,-0.77 0.67,-1.23 0.16,-0.44 0.24,-0.94 0.24,-1.48 z"
   id="path6" />&#10;			<path
   class="st5"
   d="m 688.37,54.47 c -1.35,0 -2.6,-0.16 -3.77,-0.5 -1.17,-0.34 -2.19,-0.84 -3.07,-1.51 -0.88,-0.67 -1.56,-1.5 -2.06,-2.49 -0.5,-0.99 -0.74,-2.12 -0.75,-3.4 0,-1.48 0.24,-2.89 0.73,-4.21 0.49,-1.33 1.2,-2.48 2.13,-3.47 0.93,-0.99 2.07,-1.77 3.43,-2.35 1.36,-0.57 2.91,-0.86 4.66,-0.87 1.37,0 2.65,0.16 3.84,0.5 1.19,0.34 2.22,0.84 3.1,1.51 0.88,0.67 1.57,1.5 2.07,2.49 0.51,0.99 0.76,2.12 0.76,3.4 0,1.48 -0.24,2.89 -0.73,4.21 -0.49,1.33 -1.21,2.48 -2.15,3.47 -0.94,0.99 -2.1,1.77 -3.48,2.35 -1.36,0.58 -2.94,0.87 -4.71,0.87 z m 3.75,-10.07 c 0,-0.72 -0.23,-1.32 -0.68,-1.82 -0.45,-0.49 -1.11,-0.74 -1.99,-0.74 -0.52,0 -0.98,0.11 -1.4,0.32 -0.42,0.21 -0.77,0.5 -1.08,0.84 -0.3,0.35 -0.53,0.76 -0.69,1.23 -0.16,0.47 -0.23,0.97 -0.23,1.48 0,0.74 0.23,1.35 0.68,1.83 0.45,0.48 1.1,0.72 1.95,0.72 0.54,0 1.02,-0.1 1.45,-0.31 0.43,-0.2 0.78,-0.48 1.08,-0.84 0.29,-0.36 0.52,-0.77 0.67,-1.23 0.17,-0.44 0.24,-0.94 0.24,-1.48 z"
   id="path7" />&#10;			<path
   class="st5"
   d="m 714.87,35.78 c 1.17,0 2.19,0.19 3.08,0.58 0.89,0.39 1.63,0.93 2.24,1.61 0.61,0.68 1.06,1.49 1.37,2.41 0.3,0.92 0.46,1.91 0.46,2.96 0,1.5 -0.24,2.92 -0.73,4.26 -0.49,1.34 -1.18,2.5 -2.07,3.49 -0.89,0.99 -1.93,1.78 -3.13,2.36 -1.2,0.59 -2.51,0.88 -3.92,0.88 -1.15,0 -2.18,-0.21 -3.1,-0.64 -0.92,-0.42 -1.62,-0.98 -2.09,-1.68 h -0.07 l -0.33,1.89 -6.8,0.01 4.44,-25.47 7.54,-0.01 -1.6,9.3 h 0.07 c 0.54,-0.58 1.23,-1.06 2.07,-1.42 0.84,-0.35 1.7,-0.53 2.57,-0.53 z m -0.18,8.58 c 0,-0.72 -0.23,-1.32 -0.69,-1.82 -0.46,-0.49 -1.13,-0.74 -2,-0.74 -0.52,0 -0.98,0.11 -1.4,0.32 -0.42,0.21 -0.77,0.5 -1.08,0.84 -0.3,0.35 -0.54,0.76 -0.71,1.23 -0.17,0.47 -0.25,0.97 -0.25,1.48 0,0.74 0.23,1.35 0.69,1.83 0.46,0.48 1.12,0.72 1.97,0.72 0.54,0 1.02,-0.1 1.45,-0.31 0.43,-0.2 0.79,-0.48 1.09,-0.84 0.3,-0.36 0.53,-0.77 0.69,-1.23 0.16,-0.44 0.24,-0.94 0.24,-1.48 z"
   id="path8" />&#10;			<path
   class="st5"
   d="m 724.86,47.48 c 0.58,0.58 1.26,1.02 2.02,1.31 0.76,0.29 1.47,0.44 2.12,0.43 0.45,0 0.8,-0.06 1.06,-0.19 0.26,-0.12 0.39,-0.32 0.39,-0.59 0,-0.27 -0.18,-0.49 -0.52,-0.67 -0.35,-0.18 -0.79,-0.35 -1.33,-0.5 -0.79,-0.22 -1.49,-0.48 -2.11,-0.77 -0.62,-0.29 -1.15,-0.64 -1.58,-1.04 -0.44,-0.4 -0.78,-0.87 -1.01,-1.41 -0.24,-0.54 -0.36,-1.17 -0.36,-1.89 0,-1.1 0.24,-2.07 0.72,-2.9 0.48,-0.83 1.12,-1.52 1.92,-2.06 0.8,-0.54 1.69,-0.95 2.69,-1.22 1,-0.27 2,-0.41 3.01,-0.41 1.39,0 2.73,0.19 4.03,0.58 1.29,0.39 2.34,0.94 3.15,1.66 l -3.87,4.45 c -0.38,-0.4 -0.91,-0.74 -1.58,-1.02 -0.67,-0.28 -1.34,-0.42 -1.99,-0.42 -0.45,0 -0.81,0.06 -1.09,0.19 -0.28,0.12 -0.42,0.32 -0.42,0.59 0,0.22 0.12,0.4 0.35,0.52 0.24,0.12 0.65,0.26 1.23,0.42 0.83,0.2 1.59,0.45 2.27,0.75 0.68,0.3 1.27,0.67 1.77,1.09 0.49,0.43 0.88,0.93 1.15,1.51 0.27,0.58 0.41,1.27 0.41,2.05 0,1.19 -0.26,2.2 -0.79,3.03 -0.53,0.83 -1.2,1.51 -2.02,2.02 -0.82,0.52 -1.73,0.89 -2.73,1.12 -1,0.23 -1.98,0.34 -2.95,0.34 -1.28,0 -2.63,-0.18 -4.04,-0.53 -1.41,-0.36 -2.66,-0.98 -3.74,-1.88 z"
   id="path9" />&#10;		</g><g
   id="g23"
   transform="translate(4.810395,16.034649)">&#10;		<g
   transform="matrix(0.1,0,0,-0.1,0,1001)"
   id="g21">&#10;			<g
   id="g20">&#10;				<path
   class="st2"
   d="m 7599.94,9608.42 c -9.99,-1.28 -18.29,-7.08 -22.54,-15.78 -1.94,-3.94 -2.76,-7.19 -2.92,-11.63 -0.24,-6.88 1.62,-12.92 5.7,-18.39 0.83,-1.11 4.95,-5.38 11.96,-12.38 5.87,-5.89 10.78,-10.71 10.9,-10.71 0.1,0 15.09,14.94 33.28,33.19 l 33.07,33.17 -1.77,0.71 c -8.5,3.39 -18.52,2.41 -26.08,-2.54 -0.94,-0.6 -2.11,-1.44 -2.65,-1.87 -0.52,-0.42 -8.83,-8.64 -18.43,-18.27 l -17.48,-17.5 -3.85,3.9 c -3.41,3.44 -3.95,4.07 -4.56,5.34 -1.39,2.84 -1.41,5.53 -0.05,8.44 1.28,2.71 4.11,4.77 7.2,5.24 2.46,0.39 5.38,-0.43 7.23,-2.01 l 0.79,-0.67 6.76,6.8 6.77,6.8 -1.23,1.09 c -3.56,3.2 -8.37,5.6 -13.33,6.63 -1.91,0.38 -7.12,0.66 -8.77,0.44 z"
   id="path10" />&#10;				<path
   class="st2"
   d="m 7714.38,9566.14 0.05,-29.7 7.88,0.01 7.88,0.01 0.02,11.59 0.04,11.57 10.92,0.07 10.9,0.06 0.02,-11.63 0.02,-11.63 7.88,0.01 7.88,0.01 -0.05,29.7 -0.05,29.7 -7.88,-0.01 -7.88,-0.01 0.02,-10.86 0.02,-10.86 -10.96,-0.02 -10.96,-0.02 -0.02,10.86 -0.02,10.86 -7.88,-0.01 -7.88,-0.01 z"
   id="path11" />&#10;				<path
   class="st2"
   d="m 7834.81,9574.93 -12.01,-17.82 0.01,-5.34 0.01,-5.36 12.55,-0.02 12.53,-0.04 0.06,-4.84 0.05,-4.86 6.82,0.01 6.82,0.01 0.03,4.86 0.05,4.84 2.84,0.06 2.83,0.06 -0.01,5.94 -0.01,5.94 -2.83,0.05 -2.85,0.05 -0.08,17.17 -0.06,17.15 -7.38,-0.01 -7.38,-0.01 z m 13.12,-8.24 -0.04,-8.23 -5.63,-0.07 c -3.52,-0.02 -5.61,0.01 -5.57,0.13 0.13,0.4 11.01,16.36 11.14,16.38 0.07,0 0.12,-3.69 0.1,-8.21 z"
   id="path12" />&#10;				<path
   class="st2"
   d="m 7669.85,9579.43 -12.86,-12.9 -3.37,3.36 -3.37,3.36 -6.68,-6.7 c -3.67,-3.68 -6.66,-6.78 -6.66,-6.87 0,-0.12 1.48,-1.67 3.27,-3.46 l 3.27,-3.26 -13.47,-13.52 -13.49,-13.53 6.8,-6.76 6.78,-6.78 23.82,23.87 c 13.09,13.13 24.36,24.53 25.01,25.32 6.2,7.45 8.26,17.27 5.55,26.63 -0.37,1.23 -1.51,4.13 -1.64,4.13 -0.06,0.01 -5.89,-5.79 -12.96,-12.89 z"
   id="path13" />&#10;				<path
   class="st2"
   d="m 7915.22,9584.42 0.01,-5.77 h -3.08 -3.08 l 0.01,-5.86 0.01,-5.86 h 3.08 3.08 l 0.01,-7.54 c 0.01,-9.29 0.35,-12.17 1.7,-15.41 1.7,-4.05 5.3,-7.07 9.74,-8.17 3.65,-0.9 8.61,-0.85 11.98,0.13 2.73,0.79 5.78,2.28 7.36,3.57 l 0.44,0.37 -2.83,4.46 c -1.56,2.46 -2.91,4.55 -2.99,4.63 -0.08,0.1 -0.56,-0.12 -1.08,-0.42 -1.52,-0.98 -2.8,-1.37 -4.46,-1.37 -2.27,0.02 -3.6,0.78 -4.41,2.59 -0.31,0.69 -0.35,1.56 -0.42,9 l -0.07,8.21 5.19,0.01 5.21,0.01 -0.01,5.86 -0.01,5.86 -5.19,-0.01 -5.19,-0.01 -0.01,5.77 -0.01,5.77 -7.5,-0.01 -7.5,-0.01 z"
   id="path14" />&#10;				<path
   class="st2"
   d="m 7794.17,9579.6 c -6.02,-0.78 -11.39,-4.09 -14.6,-9 -3.32,-5.06 -4.52,-11.69 -3.35,-18.57 1.59,-9.36 8,-15.17 18.36,-16.64 2.44,-0.34 8.17,-0.28 10.48,0.11 3.94,0.68 7.78,1.86 10.53,3.25 1.27,0.64 1.48,0.81 1.38,1.12 -0.08,0.21 -1.12,2.42 -2.33,4.92 -1.45,3 -2.28,4.5 -2.45,4.44 -0.12,-0.06 -0.92,-0.42 -1.77,-0.79 -3.52,-1.54 -6.76,-2.14 -10.86,-2.02 -2.1,0.07 -2.88,0.19 -4.15,0.61 -1.75,0.55 -3.41,1.65 -4.18,2.74 -0.54,0.79 -1.1,2.19 -1.1,2.77 0,0.35 0.44,0.37 14.13,0.39 l 14.13,0.02 v 2.17 c -0.01,8.88 -2.21,15.12 -6.91,19.56 -2.81,2.67 -6.18,4.24 -10.41,4.87 -1.98,0.29 -4.94,0.32 -6.9,0.05 z m 6.03,-11.45 c 2.35,-0.8 4.35,-3.09 4.66,-5.34 l 0.12,-0.86 -7.46,-0.01 -7.46,-0.01 0.13,0.83 c 0.44,2.81 2.89,5.19 5.87,5.7 1.26,0.19 3.06,0.08 4.14,-0.31 z"
   id="path15" />&#10;				<path
   class="st2"
   d="m 7897.86,9578.89 c -2.02,-0.48 -3.69,-1.52 -5.72,-3.57 -1.17,-1.17 -1.88,-1.75 -1.9,-1.56 0,0.19 -0.12,1.33 -0.23,2.54 l -0.23,2.21 -7.25,0.05 -7.27,0.03 0.03,-20.95 0.03,-20.95 7.48,0.01 7.5,0.01 0.04,10.82 c 0.06,9.5 0.1,10.94 0.39,11.96 1.03,3.58 3.09,5.66 6.47,6.47 1.27,0.29 4.48,0.31 6.04,0.01 0.63,-0.11 1.17,-0.17 1.21,-0.15 0.12,0.12 1.98,12.67 1.9,12.75 -0.04,0.06 -0.67,0.21 -1.4,0.36 -1.69,0.36 -5.58,0.33 -7.09,-0.04 z"
   id="path16" />&#10;				<path
   class="st2"
   d="m 7978.49,9569.91 c 0.01,-3.59 -0.03,-6.54 -0.09,-6.54 -0.06,0 -0.83,0.31 -1.71,0.67 -5.33,2.18 -11.92,0.69 -15.76,-3.6 -2.8,-3.12 -4.04,-7.43 -3.56,-12.23 0.72,-6.88 4.73,-11.41 10.76,-12.15 3.48,-0.44 6.75,0.62 9.26,3.03 l 1.09,1.04 0.14,-1.65 0.14,-1.63 h 2.58 2.58 l -0.03,19.8 -0.03,19.8 h -2.69 -2.69 z m -3.54,-9.93 c 0.63,-0.15 1.69,-0.59 2.35,-0.96 l 1.21,-0.67 0.01,-5.33 c 0.01,-5.75 -0.1,-6.63 -1.02,-8.48 -0.65,-1.25 -2,-2.58 -3.34,-3.23 -1.02,-0.5 -1.27,-0.54 -3.4,-0.54 -2.23,0 -2.36,0.01 -3.6,0.63 -0.69,0.35 -1.58,0.96 -1.96,1.38 -2.64,2.92 -3.24,8.82 -1.29,12.68 1.07,2.14 2.84,3.7 5.09,4.47 1.24,0.45 4.37,0.47 5.95,0.05 z"
   id="path17" />&#10;				<path
   class="st2"
   d="m 8001.41,9565.12 c -2.83,-0.45 -5.19,-1.68 -7.45,-3.95 -1.78,-1.77 -2.86,-3.69 -3.55,-6.33 -0.59,-2.19 -0.59,-5.88 -0.01,-8.23 1.3,-5.23 4.8,-8.8 9.95,-10.13 2.35,-0.61 6.08,-0.57 8.63,0.11 2.54,0.66 4.8,1.79 6.3,3.18 l 1.19,1.12 -1.42,1.55 c -0.79,0.86 -1.5,1.57 -1.56,1.57 -0.08,0 -0.54,-0.33 -1.02,-0.73 -3.3,-2.73 -8.36,-3.47 -11.97,-1.77 -2.56,1.21 -4.72,3.99 -5.01,6.47 l -0.12,1 10.92,0.02 10.92,0.02 -0.12,1.79 c -0.49,7.3 -4.17,12.62 -9.71,14.04 -1.51,0.39 -4.39,0.52 -5.97,0.27 z m 5.04,-4.78 c 2.19,-0.69 4.18,-2.9 4.85,-5.45 0.15,-0.54 0.27,-1.17 0.27,-1.4 v -0.44 l -8.09,-0.01 -8.11,-0.01 0.11,0.85 c 0.42,3.02 2.66,5.58 5.8,6.58 1.23,0.37 3.71,0.32 5.17,-0.12 z"
   id="path18" />&#10;				<path
   class="st2"
   d="m 8058.81,9565.23 c -3.5,-0.64 -6.22,-2.39 -7.55,-4.82 -0.54,-1 -0.58,-1.19 -0.57,-3.17 0,-1.92 0.04,-2.21 0.54,-3.21 0.69,-1.4 2.33,-2.9 4.08,-3.72 0.75,-0.36 2.87,-1.03 4.71,-1.51 3.98,-1.01 5.48,-1.61 6.35,-2.49 0.96,-1 1.1,-2.63 0.29,-3.86 -0.65,-1.02 -3.19,-1.81 -5.75,-1.82 -2.73,0.01 -5.13,0.78 -7.17,2.31 l -1.17,0.9 -1.57,-1.71 c -0.98,-1.06 -1.54,-1.83 -1.46,-2 0.15,-0.4 2.27,-1.92 3.46,-2.47 3.37,-1.59 8.73,-2 12.69,-0.96 1.63,0.42 3.71,1.58 4.78,2.64 0.54,0.54 1.17,1.46 1.52,2.21 0.54,1.15 0.61,1.46 0.59,3.02 0,1.35 -0.12,2.02 -0.45,2.9 -0.91,2.32 -3.43,4.13 -7.22,5.16 -0.94,0.27 -2.63,0.71 -3.73,1.01 -2.83,0.75 -4.62,1.67 -5.08,2.61 -0.56,1.08 -0.31,2.31 0.61,3.23 0.98,0.98 2.42,1.39 4.92,1.37 2.33,0 4.35,-0.59 6.12,-1.78 0.63,-0.4 1.17,-0.75 1.19,-0.75 0.15,0 2.78,3.45 2.78,3.62 0,0.54 -3.31,2.32 -5.43,2.91 -1.56,0.46 -5.91,0.67 -7.48,0.38 z"
   id="path19" />&#10;				<path
   class="st2"
   d="m 8018.67,9564.3 c 0,-0.04 2.64,-6.21 5.86,-13.68 l 5.88,-13.6 2.75,-0.05 2.75,-0.03 5.69,13.41 c 3.12,7.39 5.75,13.58 5.82,13.77 0.11,0.31 -0.1,0.33 -2.75,0.32 h -2.88 l -4.19,-10.66 c -2.3,-5.87 -4.25,-10.6 -4.31,-10.54 -0.06,0.08 -2.01,4.86 -4.34,10.66 l -4.21,10.51 h -3.04 c -1.66,-0.01 -3.03,-0.05 -3.03,-0.11 z"
   id="path20" />&#10;			</g>&#10;		</g>&#10;		<g
   id="g22">&#10;			<path
   class="st4"
   d="m 750.47,45.31 c 0,0.69 -0.15,1.23 -0.46,1.64 -0.31,0.41 -0.73,0.61 -1.27,0.61 -0.52,0 -0.92,-0.19 -1.21,-0.56 l -0.05,0.48 h -0.9 l -0.01,-6.28 h 0.99 v 2.28 c 0.29,-0.34 0.67,-0.51 1.16,-0.51 0.54,0 0.96,0.2 1.27,0.6 0.31,0.4 0.46,0.96 0.46,1.68 z m -0.99,-0.08 c 0,-0.48 -0.09,-0.84 -0.26,-1.08 -0.17,-0.24 -0.42,-0.36 -0.74,-0.36 -0.43,0 -0.73,0.19 -0.91,0.57 v 1.82 c 0.18,0.38 0.48,0.58 0.92,0.58 0.31,0 0.55,-0.12 0.72,-0.35 0.17,-0.23 0.26,-0.58 0.26,-1.05 z"
   id="path21" />&#10;			<path
   class="st4"
   d="m 752.86,46.05 0.9,-3 h 1.06 l -1.75,5.1 c -0.27,0.75 -0.73,1.12 -1.37,1.12 -0.14,0 -0.3,-0.02 -0.48,-0.07 v -0.77 l 0.19,0.01 c 0.25,0 0.44,-0.05 0.57,-0.14 0.13,-0.09 0.23,-0.24 0.3,-0.46 l 0.14,-0.38 -1.56,-4.4 h 1.07 z"
   id="path22" />&#10;		</g>&#10;	</g>&#10;<g
   id="g25">&#10;	<defs
   id="defs24">&#10;		<rect
   id="SVGID_1_"
   x="0.15"
   y="-0.49"
   width="832.18"
   height="89.17" />&#10;	</defs>&#10;	<clipPath
   id="SVGID_2_">&#10;		<use
   xlink:href="#SVGID_1_"
   style="overflow:visible;"
   id="use24" />&#10;	</clipPath>&#10;</g>&#10;<g
   transform="translate(0.000000,1001.000000) scale(0.100000,-0.100000)"
   id="g26">&#10;	<path
   class="st1"
   d="M282.62,10359.24c-162.99-20.94-298.27-115.51-367.65-257.32c-31.56-64.31-44.96-117.32-47.67-189.74   c-3.9-112.24,26.34-210.63,92.94-299.87c13.51-18.16,80.7-87.65,194.99-201.9c95.76-96.1,175.83-174.66,177.71-174.66   c1.57,0,246.03,243.65,542.77,541.3l539.32,540.98l-28.86,11.55c-138.65,55.28-301.96,39.35-425.35-41.41   c-15.35-9.74-34.45-23.57-43.22-30.48c-8.45-6.91-143.99-140.98-300.5-297.97l-285.15-285.41l-62.8,63.54   c-55.57,56.03-64.37,66.36-74.43,87.04c-22.64,46.36-23.02,90.25-0.84,137.62c20.94,44.24,66.97,77.85,117.43,85.45   c40.12,6.33,87.79-7.08,117.92-32.74l12.87-10.95l110.18,110.83l110.49,110.83l-20.09,17.84   c-58.08,52.26-136.51,91.33-217.42,108.13C394.54,10358.16,309.58,10362.73,282.62,10359.24z"
   id="path25" />&#10;	<path
   class="st1"
   d="M1422.9,9886.37L1213.19,9676l-54.95,54.78l-54.95,54.78l-108.93-109.26   c-59.79-59.97-108.61-110.52-108.61-112.08c0-1.88,24.18-27.24,53.38-56.35l53.38-53.21l-219.73-220.41l-220.05-220.73   l110.83-110.18l110.52-110.49l388.45,389.33c213.47,214.13,397.21,400,407.85,412.87c101.07,121.48,134.68,281.73,90.56,434.33   c-5.99,20.05-24.56,67.36-26.75,67.36C1633.25,10096.73,1538.09,10002.22,1422.9,9886.37z"
   id="path26" />&#10;</g>&#10;<g
   id="g28421"
   transform="matrix(2.0287593,0,0,2.0287593,-46.208706,-2.0854915)"
   inkscape:export-filename="/home/cazevedo/logo_ocaml_noobs.png"
   inkscape:export-xdpi="96"
   inkscape:export-ydpi="96"><path
     style="fill:#e9b164;fill-opacity:1;stroke:#000000;stroke-width:1.365;stroke-linecap:butt;stroke-linejoin:miter;stroke-miterlimit:4;stroke-dasharray:none;stroke-opacity:1"
     d="m 64.046461,40.710913 17.302463,-19.938865 3.967711,2.721047 7.999573,-8.576993 17.454472,15.262971 c 0,0 1.35912,1.283912 1.35912,-0.97432 0,-2.258232 0.12419,-17.23867 0.12419,-17.23867 0,0 -2.66133,-12.15696868 4.18274,-4.2748547 0,0 0.13552,1.710861 0.0306,1.484457 -0.19578,-0.422411 5.93704,-1.808507 10.72474,0.0087 1.46094,0.554509 4.15025,0.405789 5.41684,1.5336647 0.47036,0.418849 1.27227,0.168193 0.76528,1.671566 0,0 0.062,0.0095 -0.72624,0.975149 -1.25752,1.540548 -4.819,2.983086 -4.819,2.983086 0,0 -2.11797,2.070399 -8.74686,2.707203 -5.36071,0.514976 -0.82939,9.579322 0.3717,14.120064 0.30464,1.151692 1.01292,2.150954 -0.2839,2.589543 -5.27462,1.783896 3.0634,-0.118677 3.26985,1.896399 0.0589,0.574557 0.7559,3.191247 -1.30697,4.18703 -1.15752,0.558754 -6.1717,0.117515 -10.00831,0.165221 -7.86354,0.09778 -16.36273,-0.02331 -16.36273,-0.02331 L 63.208213,41.653036 Z"
     id="path983"
     sodipodi:nodetypes="cccccscsssssscssssssccc" /><path
     style="fill:none;stroke:#000000;stroke-width:0.264583px;stroke-linecap:butt;stroke-linejoin:miter;stroke-opacity:1"
     d="m 85.316635,23.493095 3.628011,3.905263"
     id="path4812" /><path
     style="fill:none;stroke:#000000;stroke-width:0.264583px;stroke-linecap:butt;stroke-linejoin:miter;stroke-opacity:1"
     d="m 92.598879,41.685293 c 0.782103,-8.08871 -3.616074,-9.112536 -3.616074,-9.112536"
     id="path4814" /><path
     style="opacity:0.683974;fill:#a75d2b;fill-opacity:1;stroke:none;stroke-width:0.264583px;stroke-linecap:butt;stroke-linejoin:miter;stroke-opacity:1"
     d="m 92.598875,41.685294 c 0,0 1.046516,-7.820364 -3.616074,-9.112536 -4.662591,-1.292175 9.22079,-1.215819 9.53239,3.980299 l -1.45837,3.035479 1.76997,2.160641 z"
     id="path18780"
     sodipodi:nodetypes="cssccc" /><path
     style="fill:none;stroke:#000000;stroke-width:0.264583px;stroke-linecap:butt;stroke-linejoin:miter;stroke-opacity:1"
     d="m 98.826791,41.749175 c 0,0 -3.374546,-1.683353 -0.3116,-5.196118"
     id="path4929" /><path
     style="fill:none;stroke:#000000;stroke-width:0.264583px;stroke-linecap:butt;stroke-linejoin:miter;stroke-opacity:1"
     d="m 127.82895,16.34785 c 0,0 -3.28976,-1.506191 -3.51232,-3.328784"
     id="path4935" /><path
     style="fill:none;stroke:#000000;stroke-width:0.264583px;stroke-linecap:butt;stroke-linejoin:miter;stroke-opacity:1"
     d="m 118.55775,12.097017 c 0,0 1.69996,-2.5874077 4.33235,-1.850382"
     id="path4937" /><path
     style="fill:#000000;stroke:#000000;stroke-width:0.264583px;stroke-linecap:butt;stroke-linejoin:miter;stroke-opacity:1"
     d="m 114.32001,10.462104 1.06243,-1.3231467 -1.66693,-2.05798 c 0,0 -1.57367,0.475928 0.6045,3.3811267 z"
     id="path4939" /><path
     style="opacity:0.757404;fill:#a75d2b;fill-opacity:1;stroke:none;stroke-width:0.264583px;stroke-linecap:butt;stroke-linejoin:miter;stroke-opacity:1"
     d="m 63.208213,41.653036 c 0,0 17.022381,-4.964165 18.71409,-7.942596 1.691709,-2.97843 -0.808926,-5.179602 -0.808926,-5.179602 0,0 -0.25845,-4.11437 0.514636,-7.291617 0.773086,-3.177249 -18.4198,20.413815 -18.4198,20.413815 z"
     id="path5123"
     sodipodi:nodetypes="cscsc" /><path
     style="fill:#a85e2c;fill-opacity:1;stroke:none;stroke-width:0.264583px;stroke-linecap:butt;stroke-linejoin:miter;stroke-opacity:1"
     d="m 93.293738,15.831732 c -4.071797,6.170279 1.075179,8.223568 1.075179,8.223568 0.248055,4.401793 -4.099499,4.709041 -4.099499,4.709041 L 85.368359,24.45792 Z"
     id="path5125"
     sodipodi:nodetypes="ccccc" /><path
     style="fill:none;stroke:#000000;stroke-width:0.264583px;stroke-linecap:butt;stroke-linejoin:miter;stroke-opacity:1"
     d="m 92.598879,41.685291 6.227911,0.06388"
     id="path17772" /><path
     style="fill:none;fill-opacity:1;stroke:#000000;stroke-width:1.365;stroke-linecap:butt;stroke-linejoin:miter;stroke-miterlimit:4;stroke-dasharray:none;stroke-opacity:1"
     d="m 64.046461,40.710913 17.302463,-19.938865 3.967711,2.721047 7.999573,-8.576993 17.454472,15.262971 c 0,0 1.35912,1.283912 1.35912,-0.97432 0,-2.258232 0.12419,-17.23867 0.12419,-17.23867 0,0 -2.66133,-12.15696868 4.18274,-4.2748547 0,0 0.13552,1.710861 0.0306,1.484457 -0.19578,-0.422411 5.93704,-1.808507 10.72474,0.0087 1.46094,0.554509 4.15025,0.405789 5.41684,1.5336647 0.47036,0.418849 1.27227,0.168193 0.76528,1.671566 0,0 0.062,0.0095 -0.72624,0.975149 -1.25752,1.540548 -4.819,2.983086 -4.819,2.983086 0,0 -2.11797,2.070399 -8.74686,2.707203 -5.36071,0.514976 -0.82939,9.579322 0.3717,14.120064 0.30464,1.151692 1.01292,2.150954 -0.2839,2.589543 -5.27462,1.783896 3.0634,-0.118677 3.26985,1.896399 0.0589,0.574557 0.7559,3.191247 -1.30697,4.18703 -1.15752,0.558754 -6.1717,0.117515 -10.00831,0.165221 -7.86354,0.09778 -16.36273,-0.02331 -16.36273,-0.02331 L 63.208213,41.653036 Z"
     id="path28309"
     sodipodi:nodetypes="cccccscsssssscssssssccc" /></g><path
   style="font-weight:900;font-size:37.0124px;line-height:1.25;font-family:'Source Sans Pro';-inkscape-font-specification:'Source Sans Pro Heavy';fill:#ffffff;stroke-width:0.925313"
   d="m 552.14766,52.104801 c 6.66223,0 11.17775,-4.663563 11.17775,-12.584217 0,-7.883641 -4.51552,-12.362142 -11.17775,-12.362142 -6.66223,0 -11.17774,4.441489 -11.17774,12.362142 0,7.920654 4.51551,12.584217 11.17774,12.584217 z m 0,-5.477835 c -2.88697,0 -4.66356,-2.738918 -4.66356,-7.106382 0,-4.367463 1.77659,-6.884306 4.66356,-6.884306 2.88697,0 4.66356,2.516843 4.66356,6.884306 0,4.367464 -1.77659,7.106382 -4.66356,7.106382 z m 25.90866,5.477835 c 3.10904,0 5.88497,-1.184397 7.92065,-3.553191 l -3.33111,-3.997339 c -1.03635,1.110372 -2.51685,2.072695 -4.36747,2.072695 -3.10904,0 -5.18173,-2.516844 -5.18173,-7.032357 0,-4.367463 2.44282,-6.958331 5.25576,-6.958331 1.62854,0 2.81294,0.740248 3.99734,1.776595 l 3.33111,-4.071364 c -1.70257,-1.702571 -4.29343,-3.183067 -7.4765,-3.183067 -6.07003,0 -11.62189,4.589538 -11.62189,12.658242 0,8.216753 5.32978,12.288117 11.47384,12.288117 z m 15.54522,0 c 1.99867,0 3.62722,-0.888298 5.10771,-2.220744 h 0.14805 l 0.44415,1.776595 h 5.18174 V 41.371205 c 0,-6.070034 -2.88697,-8.660902 -7.69858,-8.660902 -2.88697,0 -5.55186,0.888297 -8.14273,2.442818 l 2.22075,4.145389 c 1.92464,-1.036347 3.33111,-1.554521 4.66356,-1.554521 1.62854,0 2.44282,0.592199 2.59087,1.924645 -7.10639,0.740248 -10.06738,2.886967 -10.06738,6.736257 0,3.035017 2.0727,5.69991 5.55186,5.69991 z m 2.22075,-4.885637 c -1.11038,0 -1.70257,-0.481161 -1.70257,-1.332446 0,-1.036348 0.96232,-1.99867 3.99734,-2.442819 v 2.516843 c -0.66623,0.740248 -1.25843,1.258422 -2.29477,1.258422 z m 12.80626,4.441488 h 6.36614 V 39.520584 c 0.96232,-0.962322 1.85062,-1.406471 2.59086,-1.406471 1.25843,0 1.85062,0.592199 1.85062,2.960992 v 10.585547 h 6.36614 V 39.520584 c 0.96232,-0.962322 1.85062,-1.406471 2.59087,-1.406471 1.25842,0 1.85062,0.592199 1.85062,2.960992 v 10.585547 h 6.36613 v -11.39982 c 0,-4.589537 -1.7766,-7.550529 -5.84796,-7.550529 -2.51684,0 -4.1824,1.406471 -5.69991,2.960992 -0.99933,-1.924645 -2.59087,-2.960992 -5.10771,-2.960992 -2.51684,0 -4.07137,1.258421 -5.55186,2.701905 h -0.14805 l -0.44415,-2.257757 h -5.18174 z m 37.82668,0.444149 c 1.40647,0 2.44281,-0.222074 3.10904,-0.518174 l -0.74025,-4.663562 c -0.2961,0.07402 -0.44415,0.07402 -0.66622,0.07402 -0.44415,0 -1.03635,-0.370124 -1.03635,-1.628546 V 25.900021 h -6.36613 v 19.246448 c 0,4.145389 1.40647,6.958332 5.69991,6.958332 z"
   id="text29517"
   aria-label="OCaml" /></svg>
