<?xml version="1.0" encoding="UTF-8" standalone="no"?>
<!-- Generator: Adobe Illustrator 24.2.0, SVG Export Plug-In . SVG Version: 6.00 Build 0)  -->

<svg
   version="1.1"
   id="Layer_1"
   x="0px"
   y="0px"
   viewBox="0 0 1200 49.999999"
   xml:space="preserve"
   sodipodi:docname="proximo_capitulo.svg"
   width="1200"
   height="50"
   inkscape:version="1.3 (0e150ed6c4, 2023-07-21)"
   xmlns:inkscape="http://www.inkscape.org/namespaces/inkscape"
   xmlns:sodipodi="http://sodipodi.sourceforge.net/DTD/sodipodi-0.dtd"
   xmlns:xlink="http://www.w3.org/1999/xlink"
   xmlns="http://www.w3.org/2000/svg"
   xmlns:svg="http://www.w3.org/2000/svg"><defs
   id="defs26">&#10;	&#10;	&#10;</defs><sodipodi:namedview
   id="namedview26"
   pagecolor="#ffffff"
   bordercolor="#000000"
   borderopacity="0.25"
   inkscape:showpageshadow="2"
   inkscape:pageopacity="0.0"
   inkscape:pagecheckerboard="0"
   inkscape:deskcolor="#d1d1d1"
   inkscape:zoom="0.5108043"
   inkscape:cx="717.49592"
   inkscape:cy="-257.43714"
   inkscape:window-width="1920"
   inkscape:window-height="991"
   inkscape:window-x="-9"
   inkscape:window-y="-9"
   inkscape:window-maximized="1"
   inkscape:current-layer="Layer_1" />&#10;<style
   type="text/css"
   id="style1">&#10;	.st0{fill:#232E35;}&#10;	.st1{fill:#9365C9;}&#10;	.st2{fill:#BCBBBC;}&#10;	.st3{fill:#9468CC;}&#10;	.st4{fill:#B4B3B4;}&#10;	.st5{fill:#FFFFFF;}&#10;</style>&#10;<rect
   x="2.3536728e-14"
   y="-0.48999953"
   class="st0"
   width="1200"
   height="50.98"
   id="rect1"
   style="stroke-width:0.907972" />&#10;<g
   id="g10"
   transform="matrix(0.64403453,0,0,0.64403453,-313.98883,-5.4703153)">&#10;		<g
   id="g3">&#10;			<path
   class="st1"
   d="m 590.16,27.22 0.06,36.17 c 0,1.92 1.96,3.48 4.36,3.47 L 632,66.81 v -1.39 l -37.43,0.06 c -1.44,0 -2.61,-0.93 -2.61,-2.08 0,-1.15 1.17,-2.09 2.61,-2.09 L 632,61.25 631.94,23.69 594.51,23.75 c -2.41,-0.01 -4.36,1.56 -4.35,3.47 z m 40.09,32.64 -35.69,0.05 c -0.98,0 -1.88,0.26 -2.61,0.7 L 591.9,27.22 c 0,-1.15 1.17,-2.09 2.61,-2.09 l 35.69,-0.05 z"
   id="path1" />&#10;			&#10;				<rect
   x="630.25"
   y="62.639999"
   transform="matrix(1,-0.00154077,0.00154077,1,-0.0968,0.9725)"
   class="st1"
   width="1.74"
   height="1.39"
   id="rect2" />&#10;			&#10;				<rect
   x="595.42999"
   y="62.669998"
   transform="matrix(1,-0.00154077,0.00154077,1,-0.0969,0.943)"
   class="st1"
   width="33.080002"
   height="1.39"
   id="rect3" />&#10;			<path
   class="st1"
   d="m 577.97,29.8 0.05,32.92 c 0,2.3 2.35,4.17 5.23,4.17 2.88,0 5.22,-1.88 5.22,-4.18 l -0.05,-32.92 -5.23,-5.84 z m 5.22,-3.46 2.67,2.97 -5.32,0.01 z m 3.53,32.19 v 1.39 l -6.96,0.01 v -1.39 z m -6.96,-1.38 -0.04,-26.43 h 2.61 l 0.04,23.65 h 1.74 l -0.04,-23.65 h 2.61 l 0.04,26.43 h -2.61 v -1.39 h -1.74 v 1.39 z m 0.01,5.57 v -1.39 l 6.96,-0.01 v 1.39 c 0,1.53 -1.56,2.78 -3.48,2.79 -1.92,0 -3.48,-1.25 -3.48,-2.78 z"
   id="path3" />&#10;		</g>&#10;		<g
   id="g4">&#10;			<path
   class="st5"
   d="m 613.77,50.6 -17.21,0.03 -0.01,-6.41 13.75,-13.47 12.6,-0.02 0.02,13.17 4.18,-0.01 0.01,6.69 -4.18,0.01 0.01,3.75 -9.17,0.01 z m -0.02,-13.7 -7.18,7.02 7.19,-0.01 z"
   id="path4" />&#10;		</g>&#10;		<g
   id="g9">&#10;			<path
   class="st5"
   d="m 637.84,38.12 c 0.1,-0.67 0.17,-1.28 0.22,-1.82 l 7.27,-0.01 c -0.02,0.34 -0.06,0.72 -0.1,1.16 -0.04,0.44 -0.09,0.81 -0.13,1.13 h 0.13 c 0.52,-0.72 1.24,-1.35 2.17,-1.89 0.93,-0.54 1.96,-0.81 3.08,-0.81 0.99,0 1.82,0.14 2.51,0.43 0.69,0.29 1.25,0.68 1.69,1.16 0.44,0.48 0.75,1.04 0.95,1.67 0.19,0.63 0.29,1.28 0.29,1.95 0,0.36 -0.02,0.74 -0.05,1.13 -0.03,0.39 -0.08,0.77 -0.15,1.13 l -1.84,10.64 -7.58,0.01 1.64,-9.4 c 0.04,-0.2 0.07,-0.41 0.08,-0.62 0.01,-0.21 0.02,-0.39 0.02,-0.52 0,-0.45 -0.12,-0.81 -0.37,-1.09 -0.25,-0.28 -0.64,-0.42 -1.18,-0.42 -0.52,0 -0.97,0.23 -1.36,0.69 -0.39,0.46 -0.67,1.13 -0.82,2.01 l -1.68,9.35 -7.54,0.01 2.47,-14.25 c 0.09,-0.42 0.18,-0.97 0.28,-1.64 z"
   id="path5" />&#10;			<path
   class="st5"
   d="m 666.81,54.51 c -1.35,0 -2.6,-0.16 -3.77,-0.5 -1.17,-0.34 -2.19,-0.84 -3.07,-1.51 -0.88,-0.67 -1.56,-1.5 -2.06,-2.49 -0.5,-0.99 -0.74,-2.12 -0.75,-3.4 0,-1.48 0.24,-2.89 0.73,-4.21 0.49,-1.33 1.2,-2.48 2.13,-3.47 0.93,-0.99 2.07,-1.77 3.43,-2.35 1.36,-0.57 2.91,-0.86 4.66,-0.87 1.37,0 2.65,0.16 3.84,0.5 1.19,0.34 2.22,0.84 3.1,1.51 0.88,0.67 1.57,1.5 2.07,2.49 0.51,0.99 0.76,2.12 0.76,3.4 0,1.48 -0.24,2.89 -0.73,4.21 -0.49,1.33 -1.21,2.48 -2.15,3.47 -0.94,0.99 -2.1,1.77 -3.48,2.35 -1.36,0.58 -2.93,0.86 -4.71,0.87 z m 3.76,-10.08 c 0,-0.72 -0.23,-1.32 -0.68,-1.82 -0.45,-0.49 -1.11,-0.74 -1.99,-0.74 -0.52,0 -0.98,0.11 -1.4,0.32 -0.42,0.21 -0.77,0.5 -1.08,0.84 -0.3,0.35 -0.53,0.76 -0.69,1.23 -0.16,0.47 -0.23,0.97 -0.23,1.48 0,0.74 0.23,1.35 0.68,1.83 0.45,0.48 1.1,0.72 1.95,0.72 0.54,0 1.02,-0.1 1.45,-0.31 0.43,-0.2 0.78,-0.48 1.08,-0.84 0.29,-0.36 0.52,-0.77 0.67,-1.23 0.16,-0.44 0.24,-0.94 0.24,-1.48 z"
   id="path6" />&#10;			<path
   class="st5"
   d="m 688.37,54.47 c -1.35,0 -2.6,-0.16 -3.77,-0.5 -1.17,-0.34 -2.19,-0.84 -3.07,-1.51 -0.88,-0.67 -1.56,-1.5 -2.06,-2.49 -0.5,-0.99 -0.74,-2.12 -0.75,-3.4 0,-1.48 0.24,-2.89 0.73,-4.21 0.49,-1.33 1.2,-2.48 2.13,-3.47 0.93,-0.99 2.07,-1.77 3.43,-2.35 1.36,-0.57 2.91,-0.86 4.66,-0.87 1.37,0 2.65,0.16 3.84,0.5 1.19,0.34 2.22,0.84 3.1,1.51 0.88,0.67 1.57,1.5 2.07,2.49 0.51,0.99 0.76,2.12 0.76,3.4 0,1.48 -0.24,2.89 -0.73,4.21 -0.49,1.33 -1.21,2.48 -2.15,3.47 -0.94,0.99 -2.1,1.77 -3.48,2.35 -1.36,0.58 -2.94,0.87 -4.71,0.87 z m 3.75,-10.07 c 0,-0.72 -0.23,-1.32 -0.68,-1.82 -0.45,-0.49 -1.11,-0.74 -1.99,-0.74 -0.52,0 -0.98,0.11 -1.4,0.32 -0.42,0.21 -0.77,0.5 -1.08,0.84 -0.3,0.35 -0.53,0.76 -0.69,1.23 -0.16,0.47 -0.23,0.97 -0.23,1.48 0,0.74 0.23,1.35 0.68,1.83 0.45,0.48 1.1,0.72 1.95,0.72 0.54,0 1.02,-0.1 1.45,-0.31 0.43,-0.2 0.78,-0.48 1.08,-0.84 0.29,-0.36 0.52,-0.77 0.67,-1.23 0.17,-0.44 0.24,-0.94 0.24,-1.48 z"
   id="path7" />&#10;			<path
   class="st5"
   d="m 714.87,35.78 c 1.17,0 2.19,0.19 3.08,0.58 0.89,0.39 1.63,0.93 2.24,1.61 0.61,0.68 1.06,1.49 1.37,2.41 0.3,0.92 0.46,1.91 0.46,2.96 0,1.5 -0.24,2.92 -0.73,4.26 -0.49,1.34 -1.18,2.5 -2.07,3.49 -0.89,0.99 -1.93,1.78 -3.13,2.36 -1.2,0.59 -2.51,0.88 -3.92,0.88 -1.15,0 -2.18,-0.21 -3.1,-0.64 -0.92,-0.42 -1.62,-0.98 -2.09,-1.68 h -0.07 l -0.33,1.89 -6.8,0.01 4.44,-25.47 7.54,-0.01 -1.6,9.3 h 0.07 c 0.54,-0.58 1.23,-1.06 2.07,-1.42 0.84,-0.35 1.7,-0.53 2.57,-0.53 z m -0.18,8.58 c 0,-0.72 -0.23,-1.32 -0.69,-1.82 -0.46,-0.49 -1.13,-0.74 -2,-0.74 -0.52,0 -0.98,0.11 -1.4,0.32 -0.42,0.21 -0.77,0.5 -1.08,0.84 -0.3,0.35 -0.54,0.76 -0.71,1.23 -0.17,0.47 -0.25,0.97 -0.25,1.48 0,0.74 0.23,1.35 0.69,1.83 0.46,0.48 1.12,0.72 1.97,0.72 0.54,0 1.02,-0.1 1.45,-0.31 0.43,-0.2 0.79,-0.48 1.09,-0.84 0.3,-0.36 0.53,-0.77 0.69,-1.23 0.16,-0.44 0.24,-0.94 0.24,-1.48 z"
   id="path8" />&#10;			<path
   class="st5"
   d="m 724.86,47.48 c 0.58,0.58 1.26,1.02 2.02,1.31 0.76,0.29 1.47,0.44 2.12,0.43 0.45,0 0.8,-0.06 1.06,-0.19 0.26,-0.12 0.39,-0.32 0.39,-0.59 0,-0.27 -0.18,-0.49 -0.52,-0.67 -0.35,-0.18 -0.79,-0.35 -1.33,-0.5 -0.79,-0.22 -1.49,-0.48 -2.11,-0.77 -0.62,-0.29 -1.15,-0.64 -1.58,-1.04 -0.44,-0.4 -0.78,-0.87 -1.01,-1.41 -0.24,-0.54 -0.36,-1.17 -0.36,-1.89 0,-1.1 0.24,-2.07 0.72,-2.9 0.48,-0.83 1.12,-1.52 1.92,-2.06 0.8,-0.54 1.69,-0.95 2.69,-1.22 1,-0.27 2,-0.41 3.01,-0.41 1.39,0 2.73,0.19 4.03,0.58 1.29,0.39 2.34,0.94 3.15,1.66 l -3.87,4.45 c -0.38,-0.4 -0.91,-0.74 -1.58,-1.02 -0.67,-0.28 -1.34,-0.42 -1.99,-0.42 -0.45,0 -0.81,0.06 -1.09,0.19 -0.28,0.12 -0.42,0.32 -0.42,0.59 0,0.22 0.12,0.4 0.35,0.52 0.24,0.12 0.65,0.26 1.23,0.42 0.83,0.2 1.59,0.45 2.27,0.75 0.68,0.3 1.27,0.67 1.77,1.09 0.49,0.43 0.88,0.93 1.15,1.51 0.27,0.58 0.41,1.27 0.41,2.05 0,1.19 -0.26,2.2 -0.79,3.03 -0.53,0.83 -1.2,1.51 -2.02,2.02 -0.82,0.52 -1.73,0.89 -2.73,1.12 -1,0.23 -1.98,0.34 -2.95,0.34 -1.28,0 -2.63,-0.18 -4.04,-0.53 -1.41,-0.36 -2.66,-0.98 -3.74,-1.88 z"
   id="path9" />&#10;		</g>&#10;	</g>&#10;<g
   id="g25">&#10;	<defs
   id="defs24">&#10;		<rect
   id="SVGID_1_"
   x="0.15000001"
   y="-0.49000001"
   width="832.17999"
   height="89.169998" />&#10;	</defs>&#10;	<clipPath
   id="SVGID_2_">&#10;		<use
   xlink:href="#SVGID_1_"
   style="overflow:visible"
   id="use24" />&#10;	</clipPath>&#10;</g>&#10;<g
   transform="matrix(0.01946267,0,0,-0.01946267,14.778181,209.6142)"
   id="g26">&#10;	<path
   class="st1"
   d="m 282.62,10359.24 c -162.99,-20.94 -298.27,-115.51 -367.65,-257.32 -31.56,-64.31 -44.96,-117.32 -47.67,-189.74 -3.9,-112.24 26.34,-210.63 92.94,-299.87 13.51,-18.16 80.7,-87.65 194.99,-201.9 95.76,-96.1 175.83,-174.66 177.71,-174.66 1.57,0 246.03,243.65 542.77,541.3 l 539.32,540.98 -28.86,11.55 c -138.65,55.28 -301.96,39.35 -425.35,-41.41 -15.35,-9.74 -34.45,-23.57 -43.22,-30.48 -8.45,-6.91 -143.99,-140.98 -300.5,-297.97 l -285.15,-285.41 -62.8,63.54 c -55.57,56.03 -64.37,66.36 -74.43,87.04 -22.64,46.36 -23.02,90.25 -0.84,137.62 20.94,44.24 66.97,77.85 117.43,85.45 40.12,6.33 87.79,-7.08 117.92,-32.74 l 12.87,-10.95 110.18,110.83 110.49,110.83 -20.09,17.84 c -58.08,52.26 -136.51,91.33 -217.42,108.13 -30.72,6.26 -115.68,10.83 -142.64,7.34 z"
   id="path25" />&#10;	<path
   class="st1"
   d="M 1422.9,9886.37 1213.19,9676 l -54.95,54.78 -54.95,54.78 -108.93,-109.26 c -59.79,-59.97 -108.61,-110.52 -108.61,-112.08 0,-1.88 24.18,-27.24 53.38,-56.35 l 53.38,-53.21 -219.73,-220.41 -220.05,-220.73 110.83,-110.18 110.52,-110.49 388.45,389.33 c 213.47,214.13 397.21,400 407.85,412.87 101.07,121.48 134.68,281.73 90.56,434.33 -5.99,20.05 -24.56,67.36 -26.75,67.36 -0.94,-0.01 -96.1,-94.52 -211.29,-210.37 z"
   id="path26" />&#10;</g>&#10;<text
   xml:space="preserve"
   style="font-weight:200;font-size:18.6667px;font-family:'Source Sans Pro';-inkscape-font-specification:'Source Sans Pro Ultra-Light';text-align:justify;fill:#ffffff"
   x="1017.3561"
   y="30.99201"
   id="text26"><tspan
     sodipodi:role="line"
     id="tspan26"
     x="1017.3561"
     y="30.99201"
     style="font-style:normal;font-variant:normal;font-weight:bold;font-stretch:normal;font-family:'Source Sans Pro';-inkscape-font-specification:'Source Sans Pro Bold'">próximo capítulo  →</tspan></text></svg>
